<mxfile host="app.diagrams.net" modified="2023-04-30T07:42:50.547Z" agent="Mozilla/5.0 (X11; Ubuntu; Linux x86_64; rv:109.0) Gecko/20100101 Firefox/111.0" etag="ra5ztu2ZWNIYmYRTKWNl" version="21.2.3" type="device">
  <diagram name="Page-1" id="P8fKBxlhnSjjMlL6DAYU">
    <mxGraphModel dx="1041" dy="634" grid="1" gridSize="10" guides="1" tooltips="1" connect="1" arrows="1" fold="1" page="1" pageScale="1" pageWidth="850" pageHeight="1100" math="0" shadow="0">
      <root>
        <mxCell id="0" />
        <mxCell id="1" parent="0" />
        <mxCell id="QJRsf_BfrLlU7UECv43r-1" value="teleop_twist_keyboard" style="rounded=1;whiteSpace=wrap;html=1;fillColor=#dae8fc;strokeColor=#6c8ebf;" vertex="1" parent="1">
          <mxGeometry x="100" y="285" width="140" height="30" as="geometry" />
        </mxCell>
        <mxCell id="QJRsf_BfrLlU7UECv43r-3" value="laptop" style="shape=umlFrame;whiteSpace=wrap;html=1;pointerEvents=0;" vertex="1" parent="1">
          <mxGeometry x="50" y="230" width="300" height="200" as="geometry" />
        </mxCell>
        <mxCell id="QJRsf_BfrLlU7UECv43r-4" value="RViz" style="rounded=1;whiteSpace=wrap;html=1;fillColor=#dae8fc;strokeColor=#6c8ebf;" vertex="1" parent="1">
          <mxGeometry x="140" y="340" width="60" height="30" as="geometry" />
        </mxCell>
        <mxCell id="QJRsf_BfrLlU7UECv43r-5" value="" style="endArrow=classic;html=1;rounded=0;exitX=1;exitY=0.5;exitDx=0;exitDy=0;" edge="1" parent="1" source="QJRsf_BfrLlU7UECv43r-1" target="QJRsf_BfrLlU7UECv43r-7">
          <mxGeometry relative="1" as="geometry">
            <mxPoint x="370" y="330" as="sourcePoint" />
            <mxPoint x="470" y="330" as="targetPoint" />
          </mxGeometry>
        </mxCell>
        <mxCell id="QJRsf_BfrLlU7UECv43r-6" value="Label" style="edgeLabel;resizable=0;html=1;align=center;verticalAlign=middle;" connectable="0" vertex="1" parent="QJRsf_BfrLlU7UECv43r-5">
          <mxGeometry relative="1" as="geometry" />
        </mxCell>
        <mxCell id="QJRsf_BfrLlU7UECv43r-7" value="controller_node" style="rounded=1;whiteSpace=wrap;html=1;fillColor=#f8cecc;strokeColor=#b85450;" vertex="1" parent="1">
          <mxGeometry x="395" y="285" width="110" height="30" as="geometry" />
        </mxCell>
      </root>
    </mxGraphModel>
  </diagram>
</mxfile>
